<svg width="150" height="150" viewBox="0 0 150 150" fill="none" xmlns="http://www.w3.org/2000/svg">
<path d="M20.8421 103.493C20.8421 83.2724 38.6842 65.5789 63.9605 52.9408C75.8553 91.5987 89.9803 123.566 140.533 131H47.6053C38.6842 130.257 20.8421 123.714 20.8421 103.493Z" fill="white"/>
<path d="M136.836 131H47.6052C43.0612 130.621 36.2026 128.738 30.5663 124.309C39.5367 124.303 64.0117 122.784 87.0066 105.724C87.5317 105.334 88.0456 104.971 88.5485 104.632C95.0963 112.316 103.225 118.732 113.711 123.475C118.888 126.197 127.179 129.539 136.836 131Z" fill="#E5E5E5"/>
<path d="M3 58.1447C8.20395 45.5066 51.3224 18 89.9803 18C114.513 18 133.099 29.8947 136.816 37.3289C129.877 34.1075 115.257 29.1513 113.026 30.6382C109.527 32.9709 133.491 35.8421 147.967 62.6053C138.303 56.9057 118.676 44.4658 117.487 46.25C116 48.4803 139.789 60.375 144.25 93.8289C138.303 84.1645 125.367 64.0921 121.204 64.0921C118.974 64.0921 118.974 68.5526 118.974 74.5C118.974 80.4474 114.513 90.8553 114.513 104.237C114.513 116.132 130.125 126.539 140.533 131C107.284 131 85.8979 120.852 73.4924 107.324C68.4058 111.224 62.1758 114.645 55.7829 114.645C43.8882 114.645 46.1184 82.6776 63.9605 52.9408C63.9605 52.9408 21.5855 50.7105 3 58.1447Z" fill="black"/>
<mask id="mask0_317_51" style="mask-type:alpha" maskUnits="userSpaceOnUse" x="3" y="18" width="145" height="113">
<path d="M89.9803 18C51.3224 18 8.20395 45.5066 3 58.1447C21.5855 50.7105 63.9605 52.9408 63.9605 52.9408C38.6842 65.5789 20.8421 83.2724 20.8421 103.493C20.8421 123.714 38.6842 130.257 47.6053 131H140.533C130.125 126.539 114.513 116.132 114.513 104.237C114.513 96.2079 116.119 89.2495 117.404 83.6827C118.26 79.9716 118.974 76.8789 118.974 74.5C118.974 68.5526 118.974 64.0921 121.204 64.0921C125.367 64.0921 138.303 84.1645 144.25 93.8289C140.949 69.0737 127.065 56.1237 120.67 50.1591C118.423 48.0633 117.1 46.8299 117.487 46.25C118.451 44.8045 131.516 52.6953 141.581 58.7741C143.939 60.1984 146.132 61.5233 147.967 62.6053C138.014 44.2038 123.575 37.0972 116.662 33.6946C113.521 32.1484 111.933 31.367 113.026 30.6382C115.257 29.1513 129.877 34.1075 136.816 37.3289C133.099 29.8947 114.513 18 89.9803 18Z" fill="white"/>
</mask>
<g mask="url(#mask0_317_51)">
<path d="M74.6702 33.0056C76.7329 31.5006 79.1922 30.8947 81.764 31.6091C83.7724 32.1671 85.7357 34.1149 85.2454 36.5925C85.1582 37.0329 84.964 37.4703 84.7718 37.8513C84.6734 38.0463 84.5684 38.2402 84.469 38.4226C84.3678 38.6082 84.2735 38.78 84.1868 38.947C84.0066 39.2943 83.9006 39.5455 83.8645 39.7243C83.8577 39.7584 83.8571 39.7834 83.8558 39.8005C83.9268 39.857 84.0002 39.8737 84.1438 39.8376C84.3578 39.7838 84.6401 39.6237 84.9583 39.362C85.2652 39.1096 85.553 38.8067 85.7786 38.5427C85.8903 38.4119 85.9841 38.2944 86.053 38.2028C86.0875 38.157 86.1151 38.1192 86.1351 38.0905C86.1521 38.0661 86.1597 38.0532 86.1614 38.0505C86.5798 37.3393 87.2927 36.8041 88.0032 36.4372C88.7224 36.0659 89.5238 35.8226 90.2161 35.7497C90.9293 35.6746 91.905 35.845 92.72 36.2175C93.5025 36.5752 94.4242 37.2621 94.4905 38.3864C94.5532 39.4523 94.2871 40.3528 93.8431 41.2409C93.4947 41.9377 92.7493 42.3808 92.1048 42.6423C91.4306 42.9157 90.6706 43.07 90.0686 43.07C89.4713 43.07 88.9122 43.1487 88.2601 43.2419L88.2103 43.2497C87.996 43.2803 87.6614 43.3923 87.304 43.5681C86.9484 43.743 86.6468 43.9431 86.4788 44.1022C86.2283 44.3396 85.4612 45.2061 85.0481 45.9753C84.9481 46.1615 84.8804 46.3204 84.844 46.447C84.8373 46.4704 84.8344 46.4922 84.8304 46.5104C84.8703 46.5154 84.9227 46.5202 84.9905 46.5202C85.3789 46.5202 85.5204 46.5004 85.7981 46.4665C86.1034 46.4292 86.5237 46.3809 87.428 46.3347C88.4054 46.2848 90.0346 46.4616 91.5853 46.7946C92.3682 46.9628 93.1541 47.1751 93.847 47.4294C94.5265 47.6788 95.1732 47.9889 95.636 48.3737C96.6575 49.2232 97.2383 50.6376 97.1702 51.8786C97.1354 52.5129 96.9263 53.1622 96.4495 53.6589C95.9616 54.167 95.2709 54.4343 94.4407 54.4343C93.2371 54.4342 92.3969 53.7828 91.7435 53.1306C91.4273 52.815 91.1002 52.4403 90.8196 52.1394C90.5216 51.8197 90.2371 51.5384 89.9329 51.3102C89.8681 51.2617 89.6237 51.1188 89.2483 50.9587C88.8867 50.8045 88.4564 50.6571 88.0394 50.5759C87.6089 50.492 87.2654 50.4933 87.0364 50.5632C86.8563 50.6182 86.7463 50.7088 86.6819 50.9245C86.6362 51.078 86.6413 51.316 86.7786 51.6726C86.9146 52.0257 87.1552 52.4288 87.4788 52.8659C88.1277 53.7424 89.0151 54.6327 89.7669 55.3845C90.3948 56.0124 91.6462 56.7224 93.2278 57.277C94.791 57.8252 96.5857 58.1892 98.2405 58.1892C101.027 58.1892 104.154 59.3549 106.22 61.1325C107.258 62.0251 108.076 63.1153 108.409 64.3454C108.75 65.6036 108.562 66.9378 107.703 68.2253C106.84 69.5203 105.71 70.1409 104.461 70.2233C103.262 70.3025 102.04 69.8798 100.938 69.2907C98.7326 68.1118 96.6908 66.0913 95.6722 65.0134C94.7121 63.9973 93.9101 63.492 93.2552 63.2858C92.6228 63.0868 92.0791 63.1511 91.5716 63.3767C90.6458 63.7882 90.2479 64.1451 90.0354 64.5388C89.806 64.9642 89.719 65.5603 89.719 66.6394C89.719 68.2172 90.0392 69.9752 90.9436 70.9929C91.0993 71.168 91.3347 71.3793 91.6429 71.6472C91.9367 71.9025 92.2854 72.2005 92.6087 72.5134C92.9315 72.8258 93.2594 73.1814 93.5091 73.569C93.7578 73.9552 93.9622 74.4235 93.9622 74.9489C93.9622 75.8497 93.9634 76.7379 93.7532 77.5671C93.5328 78.4368 93.0892 79.2193 92.2601 79.9655C91.1812 80.9365 89.696 81.0756 88.4183 81.0886C87.7977 81.0949 87.0632 81.0668 86.5061 81.0651C85.8986 81.0633 85.3728 81.0883 84.931 81.1813C83.1973 81.5463 81.6366 82.8447 81.2122 84.6481C80.801 86.3958 80.7921 87.8442 81.4817 89.3962C82.7891 92.3377 82.7886 94.8932 82.0989 97.9968C81.9861 98.5042 81.6283 99.1262 81.2454 99.6208C81.0452 99.8794 80.8153 100.133 80.5706 100.343C80.3353 100.546 80.0396 100.748 79.7063 100.843C79.1924 100.99 78.5486 100.917 77.9681 100.796C77.3536 100.667 76.6731 100.451 76.0179 100.203C74.7345 99.7169 73.4094 99.0516 72.7981 98.5515C71.9533 97.8602 70.7774 97.2112 69.5677 96.8679C68.347 96.5215 67.1975 96.5144 66.3206 96.9528C66.055 97.0857 65.9597 97.2136 65.9183 97.3034C65.8735 97.4005 65.8463 97.5544 65.8929 97.8132C65.9938 98.3727 66.3738 99.1121 66.9368 100.077C67.472 100.994 68.1457 102.074 68.6722 103.187C69.2006 104.304 69.6233 105.537 69.6233 106.801C69.6232 108.437 68.7274 109.588 67.6233 110.298C66.54 110.994 65.211 111.303 64.139 111.303C61.4278 111.303 59.6097 110.157 58.5413 108.418C57.505 106.731 57.2217 104.568 57.3401 102.553C57.4127 101.32 58.04 100.319 58.5247 99.527C59.0501 98.6683 59.4017 98.0582 59.4017 97.3913C59.4015 97.1839 59.303 96.8418 59.053 96.3825C58.8124 95.9405 58.4699 95.46 58.0774 94.9987C57.6861 94.5388 57.2587 94.1133 56.8597 93.778C56.4476 93.4318 56.1116 93.2213 55.9036 93.1413C54.9321 92.7677 53.871 92.5683 52.7308 92.364C51.6153 92.1641 50.4162 91.9581 49.2913 91.5563C48.2327 91.1783 47.1681 90.3316 46.4593 89.6227C45.1823 88.3458 44.9036 86.5906 44.9036 85.1042C44.9037 84.5422 45.0357 83.7672 45.1712 82.987C45.3122 82.1745 45.4701 81.2965 45.5608 80.4372C45.6521 79.5725 45.6683 78.7826 45.5511 78.1472C45.434 77.5125 45.2042 77.1358 44.8929 76.9343C42.8676 75.6238 41.0744 73.9749 39.9036 71.7634C39.1932 70.4213 39.226 68.8789 39.5315 67.4899C39.8391 66.0923 40.4428 64.7534 40.9993 63.7331C41.1733 63.4141 41.4457 63.119 41.7327 62.8561C42.0278 62.586 42.3819 62.3115 42.7601 62.0397C43.5122 61.4994 44.4273 60.9229 45.2747 60.3737C46.1397 59.8131 46.9346 59.2798 47.511 58.7946C47.7994 58.5519 48.0061 58.3435 48.1351 58.1716C48.2728 57.988 48.263 57.9245 48.263 57.9567C48.2629 57.1039 47.6341 56.3229 46.803 55.4919C46.3823 55.0712 45.9839 54.6464 45.594 54.2321C45.2019 53.8153 44.8181 53.4083 44.4163 53.0065C42.539 51.1291 41.9923 48.868 42.4436 46.7712C42.8893 44.7011 44.2933 42.8468 46.2161 41.6794C49.1559 39.8945 53.547 38.0087 58.5501 39.4382C61.7302 40.3468 64.2856 40.9461 66.3978 40.7097C67.4311 40.5939 68.3461 40.2777 69.1702 39.6989C69.9981 39.1174 70.7716 38.2445 71.4827 36.9645C71.7779 36.4333 72.3146 35.6396 72.889 34.8981C73.4511 34.1726 74.115 33.4107 74.6702 33.0056Z" fill="#FF8900" stroke="black" stroke-width="1.5" stroke-linecap="round"/>
</g>
<path d="M89.9803 18C51.3224 18 8.20395 45.5066 3 58.1447C21.5855 50.7105 63.9605 52.9408 63.9605 52.9408C38.6842 65.5789 20.8421 83.2724 20.8421 103.493C20.8421 123.714 38.6842 130.257 47.6053 131H140.533C130.125 126.539 114.513 116.132 114.513 104.237C114.513 96.2079 116.119 89.2495 117.404 83.6827C118.26 79.9716 118.974 76.8789 118.974 74.5C118.974 68.5526 118.974 64.0921 121.204 64.0921C125.367 64.0921 138.303 84.1645 144.25 93.8289C140.949 69.0737 127.065 56.1237 120.67 50.1591C118.423 48.0633 117.1 46.8299 117.487 46.25C118.451 44.8045 131.516 52.6953 141.581 58.7741C143.939 60.1984 146.132 61.5233 147.967 62.6053C138.014 44.2038 123.575 37.0972 116.662 33.6946C113.521 32.1484 111.933 31.367 113.026 30.6382C115.257 29.1513 129.877 34.1075 136.816 37.3289C133.099 29.8947 114.513 18 89.9803 18Z" stroke="black" stroke-width="3" stroke-linejoin="round"/>
<ellipse cx="66.9342" cy="35.0987" rx="5.94737" ry="11.1513" fill="black"/>
<mask id="mask1_317_51" style="mask-type:alpha" maskUnits="userSpaceOnUse" x="60" y="23" width="13" height="24">
<ellipse cx="66.9342" cy="35.0987" rx="5.94737" ry="11.1513" fill="black"/>
</mask>
<g mask="url(#mask1_317_51)">
<g filter="url(#filter0_i_317_51)">
<ellipse cx="64.7039" cy="28.4079" rx="9.66447" ry="7.43421" fill="url(#paint0_radial_317_51)"/>
</g>
<g filter="url(#filter1_d_317_51)">
<ellipse cx="69.9079" cy="45.5066" rx="4.46053" ry="3.71711" fill="url(#paint1_radial_317_51)"/>
</g>
</g>
<path d="M66.9341 24.6974C68.1646 24.6974 69.4532 25.645 70.4781 27.5665C71.4857 29.4558 72.1314 32.1176 72.1314 35.0987C72.1314 38.0799 71.4857 40.7417 70.4781 42.631C69.4532 44.5525 68.1646 45.5001 66.9341 45.5001C65.7037 45.5001 64.415 44.5525 63.3902 42.631C62.3826 40.7417 61.7369 38.0798 61.7368 35.0987C61.7368 32.1177 62.3826 29.4558 63.3902 27.5665C64.415 25.645 65.7037 24.6974 66.9341 24.6974Z" stroke="black" stroke-width="1.5"/>
<defs>
<filter id="filter0_i_317_51" x="55.0395" y="20.9737" width="19.3289" height="14.8684" filterUnits="userSpaceOnUse" color-interpolation-filters="sRGB">
<feFlood flood-opacity="0" result="BackgroundImageFix"/>
<feBlend mode="normal" in="SourceGraphic" in2="BackgroundImageFix" result="shape"/>
<feColorMatrix in="SourceAlpha" type="matrix" values="0 0 0 0 0 0 0 0 0 0 0 0 0 0 0 0 0 0 127 0" result="hardAlpha"/>
<feOffset/>
<feGaussianBlur stdDeviation="0.75"/>
<feComposite in2="hardAlpha" operator="arithmetic" k2="-1" k3="1"/>
<feColorMatrix type="matrix" values="0 0 0 0 0 0 0 0 0 0 0 0 0 0 0 0 0 0 1 0"/>
<feBlend mode="normal" in2="shape" result="effect1_innerShadow_317_51"/>
</filter>
<filter id="filter1_d_317_51" x="62.4474" y="38.7895" width="14.9211" height="13.4342" filterUnits="userSpaceOnUse" color-interpolation-filters="sRGB">
<feFlood flood-opacity="0" result="BackgroundImageFix"/>
<feColorMatrix in="SourceAlpha" type="matrix" values="0 0 0 0 0 0 0 0 0 0 0 0 0 0 0 0 0 0 127 0" result="hardAlpha"/>
<feOffset/>
<feGaussianBlur stdDeviation="1.5"/>
<feColorMatrix type="matrix" values="0 0 0 0 1 0 0 0 0 1 0 0 0 0 1 0 0 0 1 0"/>
<feBlend mode="normal" in2="BackgroundImageFix" result="effect1_dropShadow_317_51"/>
<feBlend mode="normal" in="SourceGraphic" in2="effect1_dropShadow_317_51" result="shape"/>
</filter>
<radialGradient id="paint0_radial_317_51" cx="0" cy="0" r="1" gradientUnits="userSpaceOnUse" gradientTransform="translate(64.7039 28.4079) rotate(90) scale(7.43421 9.66447)">
<stop stop-color="white"/>
<stop offset="1" stop-color="white" stop-opacity="0"/>
</radialGradient>
<radialGradient id="paint1_radial_317_51" cx="0" cy="0" r="1" gradientUnits="userSpaceOnUse" gradientTransform="translate(69.9079 45.5066) rotate(90) scale(3.71711 4.46053)">
<stop stop-color="white"/>
<stop offset="1" stop-color="#C4C4C4" stop-opacity="0"/>
</radialGradient>
</defs>
</svg>
